<?xml version="1.0" encoding="UTF-8"?>
<svg id="Calque_2" data-name="Calque 2" xmlns="http://www.w3.org/2000/svg" viewBox="0 0 385.63 385.63">
  <defs>
    <style>
      .cls-1, .cls-2 {
        stroke-width: 0px;
      }

      .cls-2 {
        fill: #fff;
      }
    </style>
  </defs>
  <g id="Calque_1-2" data-name="Calque 1">
    <g>
      <circle class="cls-1" cx="192.82" cy="192.82" r="192.82"/>
      <g>
        <path class="cls-2" d="m241.28,213.23c-.02-10.22-4.72-17.08-14.25-20.81-4.99-1.96-9.97-3.91-14.98-5.81-2.43-.93-3.74-2.49-3.58-5.21.11-1.87-.16-3.78.08-5.62.16-1.22.66-2.6,1.45-3.53,3.39-3.99,5.83-8.39,6.33-13.68.29-3.06,1.11-5.85,2.38-8.71,5.46-12.21-1.01-26.63-13.96-29.87-6.14-1.53-12.86-1.44-19.27-1.13-17.47.84-27.03,18.5-18.55,33.66.51.91.71,2.08.77,3.14.3,5.13,1.33,10.21,4.83,13.98,3.06,3.29,3.79,6.77,3.38,10.87-.01.17,0,.34,0,.51-.03,3.49-.65,4.42-3.94,5.71-4.9,1.92-9.83,3.79-14.74,5.72-9.37,3.69-14.1,10.59-14.12,20.65-.02,10.32-.01,20.65.01,30.97,0,1-.1,2.33.46,2.94.99,1.1,2.38,2.32,3.72,2.47,1.74.19,3.19-1.08,3.46-3.08.14-1.1.19-2.21.19-3.31.06-10.83,0-21.66.22-32.49.09-4.56,2.65-7.96,6.69-9.87,4.05-1.92,8.33-3.38,12.49-5.03.4.31.49.35.53.41,9.7,16.61,32.76,16.31,42.21.77.3-.49,1.58-.81,2.21-.6,2.82.94,5.56,2.11,8.33,3.19,7.31,2.84,9.79,6.44,9.81,14.33.01,9.9,0,19.79.01,29.69,0,1.02-.22,2.28.27,3,.83,1.22,2.05,2.73,3.3,2.93,1.11.17,2.72-1.04,3.65-2.06.62-.68.6-2.09.6-3.17.04-10.32.04-20.64.03-30.97Zm-65.48-56.03c-.17-2.98-.1-5.97-.18-8.95-.05-2.08-.64-3.76-2.79-4.72-.64-.29-1.17-1.55-1.19-2.38-.14-8.01,5.51-13.94,14.3-14.52,4.91-.33,9.9-.19,14.8.28,7.68.72,13.39,8.92,11.51,16.96-5.49-1.37-11.01-2.56-16.43-4.15-3.24-.96-6.3-2.53-9.45-3.83-2.72-1.13-4.9-.53-5.88,1.6-.98,2.14.01,4.21,2.71,5.47,7.49,3.52,15.19,6.4,23.46,7.54,1.44.19,2.13.74,2.16,2.43.17,9.9-4.21,16.36-12.85,18.67-9.33,2.49-19.59-4.79-20.15-14.38Zm17.83,43.44c-6.74.51-11.86-2.26-15.79-8.08,5.42-3.26,6.1-8.45,6.08-14.1,5.6,1.71,10.94,1.79,16.55-.03,0,5.63.63,10.85,6.04,14.1-3.08,4.87-7.24,7.69-12.88,8.12Z"/>
        <path class="cls-2" d="m82.68,158.36c.6-1.74,1.39-4.34,2.4-6.85,13.53-33.69,37.44-56.45,71.81-68.19,2.15-.73,4.21-1.05,5.67,1.21,1.51,2.33.38,4.8-2.63,5.99-4.66,1.84-9.45,3.41-13.94,5.6-26.96,13.18-45.28,34.07-55.14,62.4-.33.96-.6,1.97-1.09,2.85-1.01,1.78-2.62,2.44-4.57,1.81-1.83-.59-2.72-1.95-2.51-4.82Z"/>
        <path class="cls-2" d="m301.83,159.23c-.09,2.37-1.09,3.63-2.98,4.04-2.14.46-3.69-.47-4.48-2.46-1.18-3-2.12-6.1-3.38-9.07-12.66-29.7-34.29-49.85-64.7-60.63-1.04-.37-2.13-.66-3.08-1.19-1.82-1-2.38-2.67-1.76-4.58.59-1.84,2.03-2.9,3.94-2.46,2.63.62,5.25,1.43,7.76,2.43,33.6,13.48,56.31,37.34,68.07,71.6.3.88.48,1.79.62,2.32Z"/>
        <path class="cls-2" d="m82.07,224.84c1.02-1.07,1.86-2.51,3.1-3.13,1.66-.82,3.38-.18,4.41,1.49.53.86.86,1.85,1.19,2.81,11.77,33.51,34.4,56.12,67.92,67.84.4.14.8.28,1.2.44,2.76,1.06,3.85,2.95,3.06,5.3-.7,2.09-2.95,3.11-5.53,2.07-6.46-2.59-13.12-4.87-19.21-8.16-26.82-14.48-45.06-36.35-54.93-65.19-.33-.96-.53-1.96-.79-2.94-.14-.18-.28-.35-.42-.53Z"/>
        <path class="cls-2" d="m301.75,226.25c-.61,1.8-1.32,4.34-2.3,6.77-13.58,33.86-37.53,56.82-72.17,68.44-1.41.47-3.52.33-4.73-.43-2.43-1.54-1.55-5.3,1.38-6.51,2.51-1.03,5.15-1.76,7.66-2.8,30.55-12.66,51.28-34.58,62.08-65.86.3-.88.61-1.78,1.09-2.58,1-1.68,2.57-2.16,4.41-1.68,1.72.44,2.69,1.96,2.59,4.64Z"/>
        <path class="cls-2" d="m302.97,172.16c-12.42,0-20.34,10.03-20.21,20.3-.04,10.51,8.17,20.14,20.34,20.22,11.11.07,20.1-9.21,20.11-20.21,0-10.5-7.94-20.3-20.24-20.31Zm-.14,32.64c-6.82-.06-12.33-5.56-12.37-12.35-.03-6.87,5.59-12.47,12.53-12.46,6.92,0,12.6,5.67,12.53,12.48-.08,6.88-5.74,12.39-12.69,12.33Z"/>
        <path class="cls-2" d="m192.12,62.21c-12.42,0-20.34,10.03-20.21,20.3-.05,10.51,8.16,20.14,20.34,20.22,11.11.07,20.1-9.21,20.1-20.22,0-10.5-7.93-20.3-20.23-20.3Zm-.14,32.64c-6.83-.06-12.34-5.56-12.37-12.35-.04-6.87,5.59-12.46,12.52-12.46,6.92,0,12.61,5.67,12.53,12.48-.08,6.88-5.74,12.38-12.68,12.33Z"/>
        <path class="cls-2" d="m82.64,172.14c-12.42,0-20.34,10.03-20.21,20.31-.04,10.5,8.16,20.13,20.34,20.22,11.11.07,20.1-9.21,20.11-20.22,0-10.5-7.94-20.3-20.24-20.31Zm-.14,32.65c-6.82-.06-12.33-5.57-12.37-12.35-.03-6.87,5.59-12.46,12.53-12.46,6.92,0,12.6,5.67,12.53,12.49-.08,6.88-5.74,12.38-12.69,12.33Z"/>
        <path class="cls-2" d="m192.3,282.97c-11.19-.04-20.58,9.03-20.4,20.17.21,12.21,9.74,20.24,20.32,20.28,10.68-.08,20.12-8.23,20.26-20.33.12-11.12-9.12-20.08-20.18-20.12Zm-.03,32.75c-6.92.08-12.58-5.72-12.47-12.79.1-6.8,5.68-12.29,12.45-12.26,6.88.04,12.4,5.68,12.35,12.63-.04,6.81-5.55,12.35-12.33,12.42Z"/>
        <path class="cls-2" d="m159.51,239.55c0-5.63-.02-11.26.02-16.88,0-1,.12-2.06.46-3,.63-1.72,2.13-2.73,3.81-2.21,1.26.39,2.44,1.57,3.25,2.69.51.72.35,1.97.35,2.99.02,10.91.02,21.83.01,32.74,0,4.02-1.32,6.04-3.92,6.05-2.61.01-3.98-2.04-3.98-6.01,0-5.46,0-10.91,0-16.37Z"/>
        <path class="cls-2" d="m224.89,239.59c0,5.63.02,11.26-.02,16.88,0,1,.08,2.34-.49,2.94-1.01,1.07-2.54,2.4-3.75,2.31-1.2-.09-2.44-1.69-3.32-2.88-.48-.64-.31-1.81-.31-2.74-.02-11-.02-22,0-33,0-1.01-.16-2.28.36-2.99.81-1.12,2.09-2.49,3.26-2.58,1.19-.1,2.74,1,3.67,2,.62.67.57,2.09.58,3.17.05,5.63.02,11.26.02,16.88Z"/>
      </g>
    </g>
  </g>
</svg>